<svg xmlns="http://www.w3.org/2000/svg" viewBox="0 0 1280 720" role="img" aria-label="convffpg recorder screenshot mockup">
  <defs>
    <linearGradient id="bg" x1="0" y1="0" x2="1" y2="1">
      <stop offset="0%" stop-color="#101d26"/>
      <stop offset="100%" stop-color="#29463f"/>
    </linearGradient>
  </defs>
  <rect width="1280" height="720" fill="url(#bg)"/>
  <rect x="48" y="40" width="1184" height="640" rx="24" fill="#f1efe7"/>
  <rect x="78" y="76" width="240" height="36" rx="18" fill="#1f3c33"/>
  <rect x="334" y="76" width="192" height="36" rx="18" fill="#d5713f"/>
  <rect x="542" y="76" width="170" height="36" rx="18" fill="#d9d5c7"/>
  <rect x="86" y="146" width="510" height="490" rx="22" fill="#15242d"/>
  <rect x="626" y="146" width="548" height="192" rx="22" fill="#d9d5c7"/>
  <rect x="626" y="362" width="548" height="274" rx="22" fill="#ece8dd"/>
  <rect x="108" y="182" width="466" height="262" rx="18" fill="#233c47"/>
  <polygon points="294,256 402,314 294,372" fill="#f1efe7" opacity="0.95"/>
  <rect x="108" y="474" width="220" height="28" rx="14" fill="#d5713f"/>
  <rect x="108" y="518" width="310" height="22" rx="11" fill="#2d5a4a"/>
  <rect x="108" y="554" width="246" height="22" rx="11" fill="#2d5a4a" opacity="0.75"/>
  <rect x="650" y="176" width="220" height="28" rx="14" fill="#1f3c33"/>
  <rect x="650" y="226" width="488" height="18" rx="9" fill="#b1ab99"/>
  <rect x="650" y="258" width="452" height="18" rx="9" fill="#b1ab99"/>
  <rect x="650" y="290" width="386" height="18" rx="9" fill="#b1ab99"/>
  <rect x="650" y="392" width="180" height="24" rx="12" fill="#1f3c33"/>
  <rect x="650" y="434" width="220" height="24" rx="12" fill="#d5713f"/>
  <rect x="886" y="434" width="252" height="24" rx="12" fill="#d9d5c7" stroke="#8d846b" stroke-width="4"/>
  <rect x="650" y="486" width="460" height="20" rx="10" fill="#b1ab99"/>
  <rect x="650" y="522" width="420" height="20" rx="10" fill="#b1ab99"/>
  <rect x="650" y="558" width="500" height="20" rx="10" fill="#b1ab99"/>
</svg>
